# xmcd
#
# Track frame offsets: 
#        150
#        18488
#        32291
#        51535
#        64342
#        75129
#        98518
#        118020
#        133307
#        150029
#        163832
#        181425
#        193313
#        208886
#        222167
#        238074
#        254573
#        268885
#        288491
#        299877
#
# Disc length: 4238 seconds
#
# Revision: 0
# Processed by: cddbd v1.5PL3 Copyright (c) Steve Scherf et al.
# Submitted via: ExactAudioCopy v0.95a5
#
DISCID=37108c14
DTITLE=Saban Saulic - Najlepse pesme
DYEAR=2000
DGENRE=Country
TTITLE0=Uvenuce narcis beli
TTITLE1=Tebi ne mogu da kazem ne
TTITLE2=Plave kose
TTITLE3=Srecno ti bilo
TTITLE4=Ti si oluja
TTITLE5=Lepotice grada
TTITLE6=Vidjas li mi staru ljubav
TTITLE7=Ja sam nasem sinu i otac i majka
TTITLE8=Jos uvek sam isti
TTITLE9=Ljubavi veruj mi
TTITLE10=Gordana
TTITLE11=Dajem ti sve
TTITLE12=Ti si bila za mene
TTITLE13=Vreme za zaljubljene
TTITLE14=Prodje zivot kao san
TTITLE15=Lepo moje oko plavo
TTITLE16=Dve su zene ispred mene
TTITLE17=Miluju me tvoji prsti mali
TTITLE18=Ljubav je pesma i mnogo vise
TTITLE19=Izdrzi moj bol
EXTD=
EXTT0=
EXTT1=
EXTT2=
EXTT3=
EXTT4=
EXTT5=
EXTT6=
EXTT7=
EXTT8=
EXTT9=
EXTT10=
EXTT11=
EXTT12=
EXTT13=
EXTT14=
EXTT15=
EXTT16=
EXTT17=
EXTT18=
EXTT19=
PLAYORDER=
